<svg width="8.500000in" height="11.000000in" viewBox="0 0 816.000000 1056.000000" xmlns="http://www.w3.org/2000/svg">
<defs>
<marker
        style="overflow:visible"
        id="Arrow1Send"
        refX="0.0"
        refY="0.0"
        orient="auto">
        <path
            transform="scale(-0.2) translate(6,0)"
            style="fill-rule:evenodd;fill:context-stroke;stroke:context-stroke;stroke-width:1.0pt"
            d="M 0.0,0.0 L 5.0,-5.0 L -12.5,0.0 L 5.0,5.0 L 0.0,0.0 z "
            />
        </marker>
</defs>
<g>
<line x1="408" x2="504" y1="528" y2="528" stroke="red" stroke-width="5" marker-end="url(#Arrow1Send)" />
<line x1="408" x2="408" y1="528" y2="432" stroke="green" stroke-width="5" marker-end="url(#Arrow1Send)" />
<text x="428" y="548">{a}</text>
</g>
<g>
<line x1="513.6" x2="530.27" y1="518.4" y2="423.858" stroke="red" stroke-width="5" marker-end="url(#Arrow1Send)" />
<line x1="513.6" x2="419.058" y1="518.4" y2="501.73" stroke="green" stroke-width="5" marker-end="url(#Arrow1Send)" />
<text x="533.6" y="538.4">{b}</text>
</g>
<g>
<line x1="488.572" x2="471.901" y1="494.491" y2="399.949" stroke="red" stroke-width="5" marker-end="url(#Arrow1Send)" />
<line x1="488.572" x2="394.03" y1="494.491" y2="511.161" stroke="green" stroke-width="5" marker-end="url(#Arrow1Send)" />
<text x="508.572" y="514.491">{c}</text>
</g>
<circle cx="504" cy="422.4" r="3" stroke="purple" fill="purple" stroke-width="1" />
<circle cx="500.875" cy="501.876" r="3" stroke="purple" fill="brown" stroke-width="1" />
<circle cx="476.316" cy="555.712" r="3" stroke="purple" fill="orange" stroke-width="1" />
<line x1="513.6" x2="518.166" y1="518.4" y2="422.509" stroke="brown" stroke-width="5" marker-end="url(#Arrow1Send)" />
<line x1="408" x2="211.13" y1="528" y2="483.538" stroke="purple" stroke-width="5" marker-end="url(#Arrow1Send)" />
<line x1="488.572" x2="566.544" y1="494.491" y2="308.332" stroke="orange" stroke-width="5" marker-end="url(#Arrow1Send)" />
</svg>